<svg xmlns="http://www.w3.org/2000/svg" width="480" height="480" fill="none" viewBox="0 0 480 480"><g filter="url(#a)"><g clip-path="url(#b)"><rect width="480" height="480" fill="#F05023" rx="132"/><g filter="url(#c)" style="mix-blend-mode:plus-darker"><circle cx="17.778" cy="-2.627" r="20.405" fill="url(#d)" fill-opacity=".08"/></g><g filter="url(#e)"><path fill="url(#f)" d="M144.665 131.25v30c0 6.216-4.922 11.25-11 11.25h-29.332c-6.077 0-11 5.034-11 11.25V300c0 33.141 26.262 60 58.665 60h121.629a7.256 7.256 0 0 0 5.188-2.194l42.926-43.903c2.31-2.362 6.261-.694 6.261 2.653V352.5c0 4.144 3.281 7.5 7.333 7.5h43.999c4.051 0 7.333-3.356 7.333-7.5V180c-.009-33.131-26.271-60-58.674-60H155.665c-6.078 0-11 5.034-11 11.25ZM313.326 300H166.664c-8.103 0-14.666-6.712-14.666-15v-90c0-8.288 6.563-15 14.666-15h146.662c8.104 0 14.667 6.712 14.667 15v90c0 8.288-6.563 15-14.667 15Z" shape-rendering="crispEdges"/></g><path fill="#fff" fill-opacity=".16" stroke="url(#g)" stroke-miterlimit="10" stroke-width="2.667" d="M145.998 161.25v-30c0-5.508 4.354-9.917 9.667-9.917h172.328c31.638 0 57.331 26.244 57.34 58.667v172.5c0 3.436-2.712 6.167-5.999 6.167h-43.999c-3.287 0-6-2.731-6-6.167v-35.944c0-4.479-5.358-6.847-8.547-3.585l-42.926 43.903a5.924 5.924 0 0 1-4.235 1.793H151.998c-31.638 0-57.331-26.234-57.331-58.667V183.75c0-5.508 4.353-9.917 9.666-9.917h29.332c6.842 0 12.333-5.659 12.333-12.583Zm20.666 140.083h146.662c8.868 0 16-7.338 16-16.333v-90c0-8.995-7.132-16.333-16-16.333H166.664c-8.867 0-15.999 7.338-15.999 16.333v90c0 8.995 7.132 16.333 15.999 16.333Z"/></g></g><defs><filter id="a" width="480" height="486.667" x="0" y="-6.667" color-interpolation-filters="sRGB" filterUnits="userSpaceOnUse"><feFlood flood-opacity="0" result="BackgroundImageFix"/><feBlend in="SourceGraphic" in2="BackgroundImageFix" result="shape"/><feColorMatrix in="SourceAlpha" result="hardAlpha" values="0 0 0 0 0 0 0 0 0 0 0 0 0 0 0 0 0 0 127 0"/><feOffset dy="-6.667"/><feGaussianBlur stdDeviation="3.333"/><feComposite in2="hardAlpha" k2="-1" k3="1" operator="arithmetic"/><feColorMatrix values="0 0 0 0 1 0 0 0 0 1 0 0 0 0 1 0 0 0 0.24 0"/><feBlend in2="shape" result="effect1_innerShadow_3578_2"/><feColorMatrix in="SourceAlpha" result="hardAlpha" values="0 0 0 0 0 0 0 0 0 0 0 0 0 0 0 0 0 0 127 0"/><feOffset dy="-6.667"/><feGaussianBlur stdDeviation="3.333"/><feComposite in2="hardAlpha" k2="-1" k3="1" operator="arithmetic"/><feColorMatrix values="0 0 0 0 1 0 0 0 0 1 0 0 0 0 1 0 0 0 0.24 0"/><feBlend in2="effect1_innerShadow_3578_2" result="effect2_innerShadow_3578_2"/></filter><filter id="c" width="50.687" height="50.687" x="-7.566" y="-27.971" color-interpolation-filters="sRGB" filterUnits="userSpaceOnUse"><feFlood flood-opacity="0" result="BackgroundImageFix"/><feBlend in="SourceGraphic" in2="BackgroundImageFix" result="shape"/><feGaussianBlur result="effect1_foregroundBlur_3578_2" stdDeviation="2.469"/></filter><filter id="e" width="417.605" height="364.272" x="31.198" y="99.288" color-interpolation-filters="sRGB" filterUnits="userSpaceOnUse"><feFlood flood-opacity="0" result="BackgroundImageFix"/><feColorMatrix in="SourceAlpha" result="hardAlpha" values="0 0 0 0 0 0 0 0 0 0 0 0 0 0 0 0 0 0 127 0"/><feOffset dy=".518"/><feGaussianBlur stdDeviation=".518"/><feComposite in2="hardAlpha" operator="out"/><feColorMatrix values="0 0 0 0 0 0 0 0 0 0 0 0 0 0 0 0 0 0 0.06 0"/><feBlend in2="BackgroundImageFix" mode="color-burn" result="effect1_dropShadow_3578_2"/><feColorMatrix in="SourceAlpha" result="hardAlpha" values="0 0 0 0 0 0 0 0 0 0 0 0 0 0 0 0 0 0 127 0"/><feOffset dy="1.036"/><feGaussianBlur stdDeviation=".777"/><feComposite in2="hardAlpha" operator="out"/><feColorMatrix values="0 0 0 0 0 0 0 0 0 0 0 0 0 0 0 0 0 0 0.03 0"/><feBlend in2="effect1_dropShadow_3578_2" mode="color-burn" result="effect2_dropShadow_3578_2"/><feColorMatrix in="SourceAlpha" result="hardAlpha" values="0 0 0 0 0 0 0 0 0 0 0 0 0 0 0 0 0 0 127 0"/><feOffset dy="2.071"/><feGaussianBlur stdDeviation="2.071"/><feComposite in2="hardAlpha" operator="out"/><feColorMatrix values="0 0 0 0 0 0 0 0 0 0 0 0 0 0 0 0 0 0 0.03 0"/><feBlend in2="effect2_dropShadow_3578_2" mode="color-burn" result="effect3_dropShadow_3578_2"/><feColorMatrix in="SourceAlpha" result="hardAlpha" values="0 0 0 0 0 0 0 0 0 0 0 0 0 0 0 0 0 0 127 0"/><feOffset dy="4.142"/><feGaussianBlur stdDeviation="3.107"/><feComposite in2="hardAlpha" operator="out"/><feColorMatrix values="0 0 0 0 0 0 0 0 0 0 0 0 0 0 0 0 0 0 0.06 0"/><feBlend in2="effect3_dropShadow_3578_2" mode="color-burn" result="effect4_dropShadow_3578_2"/><feColorMatrix in="SourceAlpha" result="hardAlpha" values="0 0 0 0 0 0 0 0 0 0 0 0 0 0 0 0 0 0 127 0"/><feOffset dy="8.285"/><feGaussianBlur stdDeviation="6.214"/><feComposite in2="hardAlpha" operator="out"/><feColorMatrix values="0 0 0 0 0 0 0 0 0 0 0 0 0 0 0 0 0 0 0.08 0"/><feBlend in2="effect4_dropShadow_3578_2" mode="color-burn" result="effect5_dropShadow_3578_2"/><feColorMatrix in="SourceAlpha" result="hardAlpha" values="0 0 0 0 0 0 0 0 0 0 0 0 0 0 0 0 0 0 127 0"/><feOffset dy="12.427"/><feGaussianBlur stdDeviation="8.285"/><feComposite in2="hardAlpha" operator="out"/><feColorMatrix values="0 0 0 0 0 0 0 0 0 0 0 0 0 0 0 0 0 0 0.03 0"/><feBlend in2="effect5_dropShadow_3578_2" mode="color-burn" result="effect6_dropShadow_3578_2"/><feColorMatrix in="SourceAlpha" result="hardAlpha" values="0 0 0 0 0 0 0 0 0 0 0 0 0 0 0 0 0 0 127 0"/><feOffset dx="-8.285" dy="28.997"/><feGaussianBlur stdDeviation="16.57"/><feComposite in2="hardAlpha" operator="out"/><feColorMatrix values="0 0 0 0 0 0 0 0 0 0 0 0 0 0 0 0 0 0 0.04 0"/><feBlend in2="effect6_dropShadow_3578_2" mode="plus-darker" result="effect7_dropShadow_3578_2"/><feColorMatrix in="SourceAlpha" result="hardAlpha" values="0 0 0 0 0 0 0 0 0 0 0 0 0 0 0 0 0 0 127 0"/><feOffset dy="41.424"/><feGaussianBlur stdDeviation="31.068"/><feComposite in2="hardAlpha" operator="out"/><feColorMatrix values="0 0 0 0 0 0 0 0 0 0 0 0 0 0 0 0 0 0 0.06 0"/><feBlend in2="effect7_dropShadow_3578_2" mode="plus-darker" result="effect8_dropShadow_3578_2"/><feBlend in="SourceGraphic" in2="effect8_dropShadow_3578_2" result="shape"/></filter><linearGradient id="f" x1="137.677" x2="332.064" y1="120.334" y2="255.002" gradientUnits="userSpaceOnUse"><stop stop-color="#fff" stop-opacity=".96"/><stop offset="1" stop-color="#fff" stop-opacity=".72"/></linearGradient><linearGradient id="g" x1="240" x2="240" y1="120" y2="360" gradientUnits="userSpaceOnUse"><stop stop-color="#fff" stop-opacity="0"/><stop offset="1" stop-color="#fff"/></linearGradient><radialGradient id="d" cx="0" cy="0" r="1" gradientTransform="rotate(90 10.203 7.575) scale(20.4051)" gradientUnits="userSpaceOnUse"><stop/><stop offset="1" stop-opacity="0"/></radialGradient><clipPath id="b"><rect width="480" height="480" fill="#fff" rx="132"/></clipPath></defs></svg>