<?xml version="1.0" encoding="UTF-8"?>
<svg width="60px" height="60px" viewBox="0 0 60 60" version="1.1" xmlns="http://www.w3.org/2000/svg" xmlns:xlink="http://www.w3.org/1999/xlink">
    <title>logo</title>
    <g id="页面-1" stroke="none" stroke-width="1" fill="none" fill-rule="evenodd">
        <g id="Home" transform="translate(-700, -2112)">
            <g id="footer" transform="translate(24, 2048)">
                <g id="logo" transform="translate(676, 64)">
                    <path d="M5.1277704,-2.26708535e-16 L54.8722296,0 C56.6552671,0 57.3018396,0.185651222 57.9536914,0.534265408 C58.6055433,0.882879593 59.1171204,1.39445674 59.4657346,2.04630859 C59.8143488,2.69816044 60,3.34473292 60,5.1277704 L60,54.8722296 C60,56.6552671 59.8143488,57.3018396 59.4657346,57.9536914 C59.1171204,58.6055433 58.6055433,59.1171204 57.9536914,59.4657346 C57.3018396,59.8143488 56.6552671,60 54.8722296,60 L5.1277704,60 C3.34473292,60 2.69816044,59.8143488 2.04630859,59.4657346 C1.39445674,59.1171204 0.882879593,58.6055433 0.534265408,57.9536914 C0.185651222,57.3018396 0,56.6552671 0,54.8722296 L0,5.1277704 C0,3.34473292 0.185651222,2.69816044 0.534265408,2.04630859 C0.882879593,1.39445674 1.39445674,0.882879593 2.04630859,0.534265408 C2.69816044,0.185651222 3.34473292,1.31724187e-16 5.1277704,-2.26708535e-16 Z" id="矩形-4" fill="#FF7737"></path>
                    <g id="Z" transform="translate(19, 14)" fill="#FFFFFF" fill-rule="nonzero">
                        <path d="M18.5667939,31.1362225 C18.3034351,31.1362225 17.7474555,31.1517829 16.898855,31.1829035 C16.0502545,31.2140242 15.048028,31.2607052 13.8921756,31.3229465 C12.7363232,31.3851878 11.485369,31.4629895 10.139313,31.5563515 C8.793257,31.6497135 7.4764631,31.7508556 6.1889313,31.8597779 C4.90139949,31.9687003 3.70896947,32.0854027 2.61164122,32.2098854 C1.51431298,32.334368 0.643765903,32.4588507 0,32.5833333 L0.0438931298,25.7679083 L12.509542,7.7023639 C12.0120865,7.7023639 11.3097964,7.75682506 10.4026718,7.86574737 C9.49554707,7.97466969 8.58110687,8.09137217 7.65935115,8.21585482 C6.73759542,8.34033747 5.94020356,8.46482012 5.26717557,8.58930277 L4.21374046,8.68266476 L5.04770992,1.35374881 L23,0 L21.8587786,6.44197708 L9.8759542,24.5542025 C10.4611959,24.5542025 11.2439567,24.5230818 12.2242366,24.4608405 C13.2045165,24.3985992 14.221374,24.3363578 15.2748092,24.2741165 C16.3282443,24.2118752 17.4694656,24.1340735 18.6984733,24.0407116 L18.5667939,31.1362225 Z" id="路径"></path>
                    </g>
                </g>
            </g>
        </g>
    </g>
</svg>