<svg width="54" height="54" viewBox="0 0 54 54" fill="none" xmlns="http://www.w3.org/2000/svg">
<path fill-rule="evenodd" clip-rule="evenodd" d="M0 7C0 3.13401 3.13401 0 7 0H47C50.866 0 54 3.13401 54 7V13.8039C53.0765 14.1036 52.2105 14.625 51.4869 15.3674L44.7458 22.2832C44.1954 22.8479 43.9202 23.1302 43.5935 23.3091C43.278 23.4818 42.9285 23.5844 42.5691 23.6098C42.1969 23.6361 41.8115 23.5477 41.0405 23.371L22.4867 19.1182L22.4867 19.1182L22.4866 19.1182C21.7021 18.9384 21.3098 18.8485 20.9304 18.8775C20.5945 18.9032 20.2674 18.9964 19.9689 19.1514C19.6316 19.3265 19.347 19.6093 18.7776 20.1748L18.7776 20.1748L18.7776 20.1748L17.8554 21.0908C16.3476 22.5884 15.5938 23.3372 15.4573 24.1035C15.3381 24.7727 15.5017 25.4611 15.9096 26.0067C16.3768 26.6316 17.3882 26.9664 19.411 27.6362L34.4082 32.6015L26.087 40.8665C25.5903 41.3599 25.342 41.6065 25.0495 41.7716C24.7904 41.9177 24.507 42.0165 24.2127 42.0631C23.8806 42.1157 23.5315 42.0772 22.8334 42.0002L18.7208 41.5463C18.0226 41.4692 17.6735 41.4307 17.3414 41.4833C17.0471 41.5299 16.7637 41.6287 16.5046 41.7749C16.2121 41.9399 15.9638 42.1866 15.4671 42.6799L14.9758 43.1679L14.9758 43.1679C13.7991 44.3366 13.2108 44.921 13.0404 45.5704C12.8909 46.14 12.9512 46.7439 13.2102 47.2733C13.5055 47.8769 14.1978 48.3353 15.5824 49.2521L21.4339 53.1269L21.434 53.1269L21.4342 53.1271C21.6814 53.2907 21.805 53.3726 21.9172 53.4676C22.0168 53.5521 22.1096 53.6443 22.1946 53.7432C22.2558 53.8145 22.3116 53.8903 22.3869 54H7C3.13401 54 0 50.866 0 47V7ZM53.479 31.0598L54 30.5178V41.2239L52.4793 34.6787C52.3029 33.9195 52.2147 33.5399 52.2407 33.1715C52.2637 32.8454 52.3516 32.5271 52.4994 32.235C52.6663 31.905 52.9372 31.6233 53.479 31.0598ZM43.2024 41.3365L47.4475 53.9859C47.2996 53.9953 47.1503 54 47 54H33.8705L33.74 52.8332C33.6624 52.1398 33.6236 51.7931 33.6766 51.4631C33.7235 51.1709 33.823 50.8893 33.9701 50.632C34.1362 50.3415 34.3846 50.0949 34.8812 49.6016L34.8813 49.6015L43.2024 41.3365ZM11.84 4.32C11.84 4.04386 11.6161 3.82 11.34 3.82C11.0639 3.82 10.84 4.04386 10.84 4.32V5.4C10.84 5.67614 11.0639 5.9 11.34 5.9C11.6161 5.9 11.84 5.67614 11.84 5.4V4.32ZM7.8595 5.53239C7.66424 5.33713 7.34766 5.33713 7.15239 5.53239C6.95713 5.72766 6.95713 6.04424 7.15239 6.2395L7.91607 7.00318C8.11133 7.19844 8.42791 7.19844 8.62318 7.00318C8.81844 6.80791 8.81844 6.49133 8.62318 6.29607L7.8595 5.53239ZM15.5274 6.2395C15.7227 6.04424 15.7227 5.72766 15.5274 5.53239C15.3322 5.33713 15.0156 5.33713 14.8203 5.53239L14.0566 6.29607C13.8614 6.49133 13.8614 6.80791 14.0566 7.00318C14.2519 7.19844 14.5685 7.19844 14.7638 7.00318L15.5274 6.2395ZM9.14 9.72C9.14 8.50497 10.125 7.52 11.34 7.52C12.555 7.52 13.54 8.50497 13.54 9.72C13.54 9.99614 13.7639 10.22 14.04 10.22C14.3161 10.22 14.54 9.99614 14.54 9.72C14.54 7.95269 13.1073 6.52 11.34 6.52C9.57269 6.52 8.14 7.95269 8.14 9.72C8.14 9.99614 8.36386 10.22 8.64 10.22C8.91614 10.22 9.14 9.99614 9.14 9.72ZM5.94 9.22C5.66386 9.22 5.44 9.44386 5.44 9.72C5.44 9.99614 5.66386 10.22 5.94 10.22H7.02C7.29614 10.22 7.52 9.99614 7.52 9.72C7.52 9.44386 7.29614 9.22 7.02 9.22H5.94ZM15.66 9.22C15.3839 9.22 15.16 9.44386 15.16 9.72C15.16 9.99614 15.3839 10.22 15.66 10.22H16.74C17.0161 10.22 17.24 9.99614 17.24 9.72C17.24 9.44386 17.0161 9.22 16.74 9.22H15.66ZM6.20095 12.5579C6.72289 12.3207 7.40361 12.3207 7.92555 12.5579C8.71041 12.9147 9.69289 12.9147 10.4778 12.5579C10.9997 12.3207 11.6804 12.3207 12.2024 12.5579C12.9872 12.9147 13.9697 12.9147 14.7546 12.5579C15.2765 12.3207 15.9572 12.3207 16.4792 12.5579C16.7305 12.6722 17.027 12.561 17.1412 12.3097C17.2555 12.0583 17.1443 11.7618 16.893 11.6476C16.1081 11.2908 15.1256 11.2908 14.3408 11.6476C13.8188 11.8848 13.1381 11.8848 12.6162 11.6476C11.8313 11.2908 10.8488 11.2908 10.064 11.6476C9.54201 11.8848 8.86129 11.8848 8.33935 11.6476C7.55449 11.2908 6.57201 11.2908 5.78715 11.6476C5.53576 11.7618 5.4246 12.0583 5.53887 12.3097C5.65314 12.561 5.94956 12.6722 6.20095 12.5579ZM10.4777 14.4479C10.9997 14.2107 11.6804 14.2107 12.2023 14.4479C12.9872 14.8047 13.9697 14.8047 14.7545 14.4479C15.0059 14.3337 15.1171 14.0372 15.0028 13.7858C14.8885 13.5345 14.5921 13.4233 14.3407 13.5376C13.8188 13.7748 13.1381 13.7748 12.6161 13.5376C11.8313 13.1808 10.8488 13.1808 10.0639 13.5376C9.54199 13.7748 8.86127 13.7748 8.33933 13.5376C8.08794 13.4233 7.79152 13.5345 7.67725 13.7858C7.56298 14.0372 7.67414 14.3337 7.92553 14.4479C8.71039 14.8047 9.69287 14.8047 10.4777 14.4479Z" fill="#F38053"/>
</svg>
